ffmpeg version 8.1.1-full_build-www.gyan.dev Copyright (c) 2000-2026 the FFmpeg developers
  built with gcc 15.2.0 (Rev13, Built by MSYS2 project)
  configuration: --enable-gpl --enable-version3 --enable-static --disable-w32threads --disable-autodetect --enable-cairo --enable-fontconfig --enable-iconv --enable-gnutls --enable-lcms2 --enable-libxml2 --enable-gmp --enable-bzlib --enable-lzma --enable-libsnappy --enable-zlib --enable-librist --enable-libsrt --enable-libssh --enable-libzmq --enable-avisynth --enable-libbluray --enable-libcaca --enable-libdvdnav --enable-libdvdread --enable-sdl2 --enable-libaribb24 --enable-libaribcaption --enable-libdav1d --enable-libdavs2 --enable-libopenjpeg --enable-libquirc --enable-libuavs3d --enable-libxevd --enable-libzvbi --enable-liboapv --enable-libqrencode --enable-librav1e --enable-libsvtav1 --enable-libvvenc --enable-libwebp --enable-libx264 --enable-libx265 --enable-libxavs2 --enable-libxeve --enable-libxvid --enable-libaom --enable-libjxl --enable-libsvtjpegxs --enable-libvpx --enable-mediafoundation --enable-libass --enable-frei0r --enable-libfreetype --enable-libfribidi --enable-libharfbuzz --enable-liblensfun --enable-libvidstab --enable-libvmaf --enable-libzimg --enable-amf --enable-cuda-llvm --enable-cuvid --enable-dxva2 --enable-d3d11va --enable-d3d12va --enable-ffnvcodec --enable-libvpl --enable-nvdec --enable-nvenc --enable-vaapi --enable-libshaderc --enable-vulkan --enable-libplacebo --enable-opencl --enable-libcdio --enable-openal --enable-libgme --enable-libmodplug --enable-libopenmpt --enable-libopencore-amrwb --enable-libmp3lame --enable-libshine --enable-libtheora --enable-libtwolame --enable-libvo-amrwbenc --enable-libcodec2 --enable-libilbc --enable-libgsm --enable-liblc3 --enable-libopencore-amrnb --enable-libopus --enable-libspeex --enable-libvorbis --enable-ladspa --enable-libbs2b --enable-libflite --enable-libmysofa --enable-librubberband --enable-libsoxr --enable-chromaprint --enable-whisper
  libavutil      60. 26.101 / 60. 26.101
  libavcodec     62. 28.101 / 62. 28.101
  libavformat    62. 12.101 / 62. 12.101
  libavdevice    62.  3.101 / 62.  3.101
  libavfilter    11. 14.101 / 11. 14.101
  libswscale      9.  5.101 /  9.  5.101
  libswresample   6.  3.101 /  6.  3.101
Input #0, mov,mp4,m4a,3gp,3g2,mj2, from 'D:\PythonProjects\viral-cutter-ai\benchmarks\runs\20260510_171633\putin_parade_commentary\auto\cuts_raw\segment_1_06-57_53_07-47_13.mp4':
  Metadata:
    major_brand     : isom
    minor_version   : 512
    compatible_brands: isomiso2avc1mp41
    encoder         : Lavf62.12.101
  Duration: 00:00:49.60, start: 0.000000, bitrate: 3531 kb/s
  Stream #0:0[0x1](und): Video: h264 (High) (avc1 / 0x31637661), yuvj420p(pc, bt470bg/unknown/unknown, progressive), 1080x1920 [SAR 1:1 DAR 9:16], 3337 kb/s, 25 fps, 25 tbr, 12800 tbn, start 0.080000 (default)
    Metadata:
      handler_name    : VideoHandler
      encoder         : Lavc62.28.101 libx264
  Stream #0:1[0x2](eng): Audio: aac (LC) (mp4a / 0x6134706D), 48000 Hz, stereo, fltp, 193 kb/s (default)
    Metadata:
      handler_name    : SoundHandler
[Parsed_ass_0 @ 000001f0a0da4540] libass API version: 0x1704000
[Parsed_ass_0 @ 000001f0a0da4540] libass source: commit: 0.17.4-27-g1cbba0a8818c83495114b3c2b5730410eecbdb2c
[Parsed_ass_0 @ 000001f0a0da4540] Shaper: FriBidi 1.0.16 (SIMPLE) HarfBuzz-ng 14.2.0 (COMPLEX)
[Parsed_ass_0 @ 000001f0a0da4540] Using font provider directwrite (with GDI)
[Parsed_ass_0 @ 000001f0a0da4540] Added subtitle file: 'D:\PythonProjects\viral-cutter-ai\benchmarks\runs\20260510_171633\putin_parade_commentary\auto\cuts_raw\segment_1_06-57_53_07-47_13.ass' (7 styles, 13 events)
Stream mapping:
  Stream #0:0 -> #0:0 (h264 (native) -> h264 (libx264))
  Stream #0:1 -> #0:1 (aac (native) -> aac (native))
Press [q] to stop, [?] for help
[Parsed_ass_0 @ 000001f0a0da3e00] libass API version: 0x1704000
[Parsed_ass_0 @ 000001f0a0da3e00] libass source: commit: 0.17.4-27-g1cbba0a8818c83495114b3c2b5730410eecbdb2c
[Parsed_ass_0 @ 000001f0a0da3e00] Shaper: FriBidi 1.0.16 (SIMPLE) HarfBuzz-ng 14.2.0 (COMPLEX)
[Parsed_ass_0 @ 000001f0a0da3e00] Using font provider directwrite (with GDI)
[Parsed_ass_0 @ 000001f0a0da3e00] Added subtitle file: 'D:\PythonProjects\viral-cutter-ai\benchmarks\runs\20260510_171633\putin_parade_commentary\auto\cuts_raw\segment_1_06-57_53_07-47_13.ass' (7 styles, 13 events)
[Parsed_ass_0 @ 000001f0a0da3e00] fontselect: (Arial Black, 400, 0) -> Arial-Black, 0, Arial-Black
[Parsed_ass_0 @ 000001f0a0da3e00] fontselect: (Arial Black, 700, 0) -> Arial-Black, 0, Arial-Black
[libx264 @ 000001f0a1822b40] using SAR=1/1
[libx264 @ 000001f0a1822b40] using cpu capabilities: MMX2 SSE2Fast SSSE3 SSE4.2 AVX FMA3 BMI2 AVX2 AVX512
[libx264 @ 000001f0a1822b40] profile High, level 4.0, 4:2:0, 8-bit
[libx264 @ 000001f0a1822b40] 264 - core 165 r3223 0480cb0 - H.264/MPEG-4 AVC codec - Copyleft 2003-2025 - http://www.videolan.org/x264.html - options: cabac=1 ref=3 deblock=1:0:0 analyse=0x3:0x113 me=hex subme=7 psy=1 psy_rd=1.00:0.00 mixed_ref=1 me_range=16 chroma_me=1 trellis=1 8x8dct=1 cqm=0 deadzone=21,11 fast_pskip=1 chroma_qp_offset=-2 threads=24 lookahead_threads=4 sliced_threads=0 nr=0 decimate=1 interlaced=0 bluray_compat=0 constrained_intra=0 bframes=3 b_pyramid=2 b_adapt=1 b_bias=0 direct=1 weightb=1 open_gop=0 weightp=2 keyint=250 keyint_min=25 scenecut=40 intra_refresh=0 rc_lookahead=40 rc=crf mbtree=1 crf=23.0 qcomp=0.60 qpmin=0 qpmax=69 qpstep=4 ip_ratio=1.40 aq=1:1.00
Output #0, mp4, to 'D:\PythonProjects\viral-cutter-ai\benchmarks\runs\20260510_171633\putin_parade_commentary\auto\cuts_subtitles\segment_1_06-57_53_07-47_13.mp4':
  Metadata:
    major_brand     : isom
    minor_version   : 512
    compatible_brands: isomiso2avc1mp41
    encoder         : Lavf62.12.101
  Stream #0:0(und): Video: h264 (avc1 / 0x31637661), yuvj420p(pc, bt470bg/unknown/unknown, progressive), 1080x1920 [SAR 1:1 DAR 9:16], q=2-31, 25 fps, 12800 tbn (default)
    Metadata:
      encoder         : Lavc62.28.101 libx264
      handler_name    : VideoHandler
    Side data:
      CPB properties: bitrate max/min/avg: 0/0/0 buffer size: 0 vbv_delay: N/A
  Stream #0:1(eng): Audio: aac (LC) (mp4a / 0x6134706D), 48000 Hz, stereo, fltp, 192 kb/s (default)
    Metadata:
      encoder         : Lavc62.28.101 aac
      handler_name    : SoundHandler
frame=  111 fps=0.0 q=28.0 size=     768KiB time=00:00:04.44 bitrate=1417.1kbits/s speed=8.54x elapsed=0:00:00.51    frame=  284 fps=275 q=28.0 size=    2304KiB time=00:00:11.36 bitrate=1661.5kbits/s speed=  11x elapsed=0:00:01.03    frame=  404 fps=260 q=28.0 size=    3584KiB time=00:00:16.16 bitrate=1816.9kbits/s speed=10.4x elapsed=0:00:01.55    frame=  530 fps=257 q=28.0 size=    5120KiB time=00:00:21.20 bitrate=1978.5kbits/s speed=10.3x elapsed=0:00:02.06    frame=  655 fps=254 q=28.0 size=    6656KiB time=00:00:26.20 bitrate=2081.2kbits/s speed=10.2x elapsed=0:00:02.57    frame=  756 fps=244 q=28.0 size=    7936KiB time=00:00:30.24 bitrate=2149.9kbits/s speed=9.78x elapsed=0:00:03.09    frame=  845 fps=234 q=28.0 size=    9728KiB time=00:00:33.80 bitrate=2357.8kbits/s speed=9.37x elapsed=0:00:03.60    frame=  929 fps=225 q=28.0 size=   11264KiB time=00:00:37.16 bitrate=2483.2kbits/s speed=   9x elapsed=0:00:04.12    frame= 1018 fps=220 q=28.0 size=   12800KiB time=00:00:40.72 bitrate=2575.1kbits/s speed=8.79x elapsed=0:00:04.63    frame= 1138 fps=221 q=28.0 size=   14336KiB time=00:00:45.52 bitrate=2580.0kbits/s speed=8.83x elapsed=0:00:05.15    [out#0/mp4 @ 000001f09f1f0980] video:14315KiB audio:1173KiB subtitle:0KiB other streams:0KiB global headers:0KiB muxing overhead: 0.243508%
frame= 1238 fps=228 q=-1.0 Lsize=   15527KiB time=00:00:49.52 bitrate=2568.5kbits/s speed= 9.1x elapsed=0:00:05.44    
[libx264 @ 000001f0a1822b40] frame I:8     Avg QP:18.32  size:112493
[libx264 @ 000001f0a1822b40] frame P:537   Avg QP:20.94  size: 19244
[libx264 @ 000001f0a1822b40] frame B:693   Avg QP:24.07  size:  4941
[libx264 @ 000001f0a1822b40] consecutive B-frames:  8.2% 50.6%  2.4% 38.8%
[libx264 @ 000001f0a1822b40] mb I  I16..4: 14.0% 65.8% 20.2%
[libx264 @ 000001f0a1822b40] mb P  I16..4:  5.6% 14.1%  0.7%  P16..4: 30.4%  4.2%  2.0%  0.0%  0.0%    skip:43.1%
[libx264 @ 000001f0a1822b40] mb B  I16..4:  0.7%  1.5%  0.0%  B16..8: 23.0%  1.0%  0.1%  direct: 0.9%  skip:72.7%  L0:40.7% L1:55.6% BI: 3.8%
[libx264 @ 000001f0a1822b40] 8x8 transform intra:68.4% inter:84.3%
[libx264 @ 000001f0a1822b40] coded y,uvDC,uvAC intra: 29.3% 34.0% 8.2% inter: 5.3% 9.5% 0.3%
[libx264 @ 000001f0a1822b40] i16 v,h,dc,p: 18% 34%  5% 42%
[libx264 @ 000001f0a1822b40] i8 v,h,dc,ddl,ddr,vr,hd,vl,hu: 25% 23% 21%  4%  5%  5%  6%  5%  4%
[libx264 @ 000001f0a1822b40] i4 v,h,dc,ddl,ddr,vr,hd,vl,hu: 26% 24%  9%  6%  8%  8%  8%  6%  5%
[libx264 @ 000001f0a1822b40] i8c dc,h,v,p: 62% 18% 15%  6%
[libx264 @ 000001f0a1822b40] Weighted P-Frames: Y:0.0% UV:0.0%
[libx264 @ 000001f0a1822b40] ref P L0: 74.6%  7.7% 14.1%  3.6%
[libx264 @ 000001f0a1822b40] ref B L0: 91.3%  7.6%  1.0%
[libx264 @ 000001f0a1822b40] ref B L1: 99.2%  0.8%
[libx264 @ 000001f0a1822b40] kb/s:2368.07
[aac @ 000001f0a19ede40] Qavg: 897.123
ffmpeg version 8.1.1-full_build-www.gyan.dev Copyright (c) 2000-2026 the FFmpeg developers
  built with gcc 15.2.0 (Rev13, Built by MSYS2 project)
  configuration: --enable-gpl --enable-version3 --enable-static --disable-w32threads --disable-autodetect --enable-cairo --enable-fontconfig --enable-iconv --enable-gnutls --enable-lcms2 --enable-libxml2 --enable-gmp --enable-bzlib --enable-lzma --enable-libsnappy --enable-zlib --enable-librist --enable-libsrt --enable-libssh --enable-libzmq --enable-avisynth --enable-libbluray --enable-libcaca --enable-libdvdnav --enable-libdvdread --enable-sdl2 --enable-libaribb24 --enable-libaribcaption --enable-libdav1d --enable-libdavs2 --enable-libopenjpeg --enable-libquirc --enable-libuavs3d --enable-libxevd --enable-libzvbi --enable-liboapv --enable-libqrencode --enable-librav1e --enable-libsvtav1 --enable-libvvenc --enable-libwebp --enable-libx264 --enable-libx265 --enable-libxavs2 --enable-libxeve --enable-libxvid --enable-libaom --enable-libjxl --enable-libsvtjpegxs --enable-libvpx --enable-mediafoundation --enable-libass --enable-frei0r --enable-libfreetype --enable-libfribidi --enable-libharfbuzz --enable-liblensfun --enable-libvidstab --enable-libvmaf --enable-libzimg --enable-amf --enable-cuda-llvm --enable-cuvid --enable-dxva2 --enable-d3d11va --enable-d3d12va --enable-ffnvcodec --enable-libvpl --enable-nvdec --enable-nvenc --enable-vaapi --enable-libshaderc --enable-vulkan --enable-libplacebo --enable-opencl --enable-libcdio --enable-openal --enable-libgme --enable-libmodplug --enable-libopenmpt --enable-libopencore-amrwb --enable-libmp3lame --enable-libshine --enable-libtheora --enable-libtwolame --enable-libvo-amrwbenc --enable-libcodec2 --enable-libilbc --enable-libgsm --enable-liblc3 --enable-libopencore-amrnb --enable-libopus --enable-libspeex --enable-libvorbis --enable-ladspa --enable-libbs2b --enable-libflite --enable-libmysofa --enable-librubberband --enable-libsoxr --enable-chromaprint --enable-whisper
  libavutil      60. 26.101 / 60. 26.101
  libavcodec     62. 28.101 / 62. 28.101
  libavformat    62. 12.101 / 62. 12.101
  libavdevice    62.  3.101 / 62.  3.101
  libavfilter    11. 14.101 / 11. 14.101
  libswscale      9.  5.101 /  9.  5.101
  libswresample   6.  3.101 /  6.  3.101
Input #0, mov,mp4,m4a,3gp,3g2,mj2, from 'D:\PythonProjects\viral-cutter-ai\benchmarks\runs\20260510_171633\putin_parade_commentary\auto\cuts_raw\segment_2_10-08_63_10-39_61.mp4':
  Metadata:
    major_brand     : isom
    minor_version   : 512
    compatible_brands: isomiso2avc1mp41
    encoder         : Lavf62.12.101
  Duration: 00:00:31.00, start: 0.000000, bitrate: 3543 kb/s
  Stream #0:0[0x1](und): Video: h264 (High) (avc1 / 0x31637661), yuvj420p(pc, bt470bg/unknown/unknown, progressive), 1080x1920 [SAR 1:1 DAR 9:16], 3355 kb/s, 25 fps, 25 tbr, 12800 tbn, start 0.080000 (default)
    Metadata:
      handler_name    : VideoHandler
      encoder         : Lavc62.28.101 libx264
  Stream #0:1[0x2](eng): Audio: aac (LC) (mp4a / 0x6134706D), 48000 Hz, stereo, fltp, 193 kb/s (default)
    Metadata:
      handler_name    : SoundHandler
[Parsed_ass_0 @ 0000023072484a00] libass API version: 0x1704000
[Parsed_ass_0 @ 0000023072484a00] libass source: commit: 0.17.4-27-g1cbba0a8818c83495114b3c2b5730410eecbdb2c
[Parsed_ass_0 @ 0000023072484a00] Shaper: FriBidi 1.0.16 (SIMPLE) HarfBuzz-ng 14.2.0 (COMPLEX)
[Parsed_ass_0 @ 0000023072484a00] Using font provider directwrite (with GDI)
[Parsed_ass_0 @ 0000023072484a00] Added subtitle file: 'D:\PythonProjects\viral-cutter-ai\benchmarks\runs\20260510_171633\putin_parade_commentary\auto\cuts_raw\segment_2_10-08_63_10-39_61.ass' (7 styles, 12 events)
Stream mapping:
  Stream #0:0 -> #0:0 (h264 (native) -> h264 (libx264))
  Stream #0:1 -> #0:1 (aac (native) -> aac (native))
Press [q] to stop, [?] for help
[Parsed_ass_0 @ 0000023072484a00] libass API version: 0x1704000
[Parsed_ass_0 @ 0000023072484a00] libass source: commit: 0.17.4-27-g1cbba0a8818c83495114b3c2b5730410eecbdb2c
[Parsed_ass_0 @ 0000023072484a00] Shaper: FriBidi 1.0.16 (SIMPLE) HarfBuzz-ng 14.2.0 (COMPLEX)
[Parsed_ass_0 @ 0000023072484a00] Using font provider directwrite (with GDI)
[Parsed_ass_0 @ 0000023072484a00] Added subtitle file: 'D:\PythonProjects\viral-cutter-ai\benchmarks\runs\20260510_171633\putin_parade_commentary\auto\cuts_raw\segment_2_10-08_63_10-39_61.ass' (7 styles, 12 events)
[Parsed_ass_0 @ 0000023072484a00] fontselect: (Arial Black, 400, 0) -> Arial-Black, 0, Arial-Black
[libx264 @ 0000023072485c00] using SAR=1/1
[libx264 @ 0000023072485c00] using cpu capabilities: MMX2 SSE2Fast SSSE3 SSE4.2 AVX FMA3 BMI2 AVX2 AVX512
[libx264 @ 0000023072485c00] profile High, level 4.0, 4:2:0, 8-bit
[libx264 @ 0000023072485c00] 264 - core 165 r3223 0480cb0 - H.264/MPEG-4 AVC codec - Copyleft 2003-2025 - http://www.videolan.org/x264.html - options: cabac=1 ref=3 deblock=1:0:0 analyse=0x3:0x113 me=hex subme=7 psy=1 psy_rd=1.00:0.00 mixed_ref=1 me_range=16 chroma_me=1 trellis=1 8x8dct=1 cqm=0 deadzone=21,11 fast_pskip=1 chroma_qp_offset=-2 threads=24 lookahead_threads=4 sliced_threads=0 nr=0 decimate=1 interlaced=0 bluray_compat=0 constrained_intra=0 bframes=3 b_pyramid=2 b_adapt=1 b_bias=0 direct=1 weightb=1 open_gop=0 weightp=2 keyint=250 keyint_min=25 scenecut=40 intra_refresh=0 rc_lookahead=40 rc=crf mbtree=1 crf=23.0 qcomp=0.60 qpmin=0 qpmax=69 qpstep=4 ip_ratio=1.40 aq=1:1.00
Output #0, mp4, to 'D:\PythonProjects\viral-cutter-ai\benchmarks\runs\20260510_171633\putin_parade_commentary\auto\cuts_subtitles\segment_2_10-08_63_10-39_61.mp4':
  Metadata:
    major_brand     : isom
    minor_version   : 512
    compatible_brands: isomiso2avc1mp41
    encoder         : Lavf62.12.101
  Stream #0:0(und): Video: h264 (avc1 / 0x31637661), yuvj420p(pc, bt470bg/unknown/unknown, progressive), 1080x1920 [SAR 1:1 DAR 9:16], q=2-31, 25 fps, 12800 tbn (default)
    Metadata:
      encoder         : Lavc62.28.101 libx264
      handler_name    : VideoHandler
    Side data:
      CPB properties: bitrate max/min/avg: 0/0/0 buffer size: 0 vbv_delay: N/A
  Stream #0:1(eng): Audio: aac (LC) (mp4a / 0x6134706D), 48000 Hz, stereo, fltp, 192 kb/s (default)
    Metadata:
      encoder         : Lavc62.28.101 aac
      handler_name    : SoundHandler
[Parsed_ass_0 @ 0000023072484a00] fontselect: (Arial Black, 700, 0) -> Arial-Black, 0, Arial-Black
frame=   46 fps=0.0 q=28.0 size=     512KiB time=00:00:01.84 bitrate=2279.7kbits/s speed=3.58x elapsed=0:00:00.51    frame=  140 fps=136 q=28.0 size=    2048KiB time=00:00:05.60 bitrate=2996.0kbits/s speed=5.45x elapsed=0:00:01.02    frame=  270 fps=175 q=28.0 size=    3584KiB time=00:00:10.80 bitrate=2718.6kbits/s speed=   7x elapsed=0:00:01.54    frame=  400 fps=194 q=28.0 size=    5120KiB time=00:00:16.00 bitrate=2621.5kbits/s speed=7.75x elapsed=0:00:02.06    frame=  537 fps=209 q=28.0 size=    6400KiB time=00:00:21.48 bitrate=2440.8kbits/s speed=8.34x elapsed=0:00:02.57    frame=  656 fps=212 q=28.0 size=    7936KiB time=00:00:26.24 bitrate=2477.6kbits/s speed= 8.5x elapsed=0:00:03.08    [out#0/mp4 @ 0000023070500a40] video:8807KiB audio:734KiB subtitle:0KiB other streams:0KiB global headers:0KiB muxing overhead: 0.254768%
frame=  772 fps=223 q=-1.0 Lsize=    9565KiB time=00:00:30.88 bitrate=2537.5kbits/s speed=8.91x elapsed=0:00:03.46    
[libx264 @ 0000023072485c00] frame I:5     Avg QP:18.18  size: 69879
[libx264 @ 0000023072485c00] frame P:305   Avg QP:20.31  size: 19754
[libx264 @ 0000023072485c00] frame B:462   Avg QP:22.96  size:  5722
[libx264 @ 0000023072485c00] consecutive B-frames:  3.2% 50.0%  2.7% 44.0%
[libx264 @ 0000023072485c00] mb I  I16..4: 16.1% 68.2% 15.8%
[libx264 @ 0000023072485c00] mb P  I16..4:  4.1% 12.6%  0.7%  P16..4: 34.5%  4.8%  2.0%  0.0%  0.0%    skip:41.2%
[libx264 @ 0000023072485c00] mb B  I16..4:  0.5%  1.2%  0.1%  B16..8: 25.3%  1.1%  0.1%  direct: 1.7%  skip:69.9%  L0:40.6% L1:55.4% BI: 4.0%
[libx264 @ 0000023072485c00] 8x8 transform intra:71.2% inter:88.4%
[libx264 @ 0000023072485c00] coded y,uvDC,uvAC intra: 33.3% 45.6% 13.3% inter: 5.7% 12.4% 0.3%
[libx264 @ 0000023072485c00] i16 v,h,dc,p: 24% 39%  7% 31%
[libx264 @ 0000023072485c00] i8 v,h,dc,ddl,ddr,vr,hd,vl,hu: 22% 22% 26%  4%  5%  5%  6%  4%  4%
[libx264 @ 0000023072485c00] i4 v,h,dc,ddl,ddr,vr,hd,vl,hu: 23% 29% 11%  5%  8%  6%  8%  5%  5%
[libx264 @ 0000023072485c00] i8c dc,h,v,p: 54% 22% 17%  7%
[libx264 @ 0000023072485c00] Weighted P-Frames: Y:3.0% UV:0.0%
[libx264 @ 0000023072485c00] ref P L0: 70.0% 10.2% 15.5%  4.1%  0.1%
[libx264 @ 0000023072485c00] ref B L0: 91.3%  7.6%  1.2%
[libx264 @ 0000023072485c00] ref B L1: 98.6%  1.4%
[libx264 @ 0000023072485c00] kb/s:2336.19
[aac @ 00000230723fc3c0] Qavg: 850.841
ffmpeg version 8.1.1-full_build-www.gyan.dev Copyright (c) 2000-2026 the FFmpeg developers
  built with gcc 15.2.0 (Rev13, Built by MSYS2 project)
  configuration: --enable-gpl --enable-version3 --enable-static --disable-w32threads --disable-autodetect --enable-cairo --enable-fontconfig --enable-iconv --enable-gnutls --enable-lcms2 --enable-libxml2 --enable-gmp --enable-bzlib --enable-lzma --enable-libsnappy --enable-zlib --enable-librist --enable-libsrt --enable-libssh --enable-libzmq --enable-avisynth --enable-libbluray --enable-libcaca --enable-libdvdnav --enable-libdvdread --enable-sdl2 --enable-libaribb24 --enable-libaribcaption --enable-libdav1d --enable-libdavs2 --enable-libopenjpeg --enable-libquirc --enable-libuavs3d --enable-libxevd --enable-libzvbi --enable-liboapv --enable-libqrencode --enable-librav1e --enable-libsvtav1 --enable-libvvenc --enable-libwebp --enable-libx264 --enable-libx265 --enable-libxavs2 --enable-libxeve --enable-libxvid --enable-libaom --enable-libjxl --enable-libsvtjpegxs --enable-libvpx --enable-mediafoundation --enable-libass --enable-frei0r --enable-libfreetype --enable-libfribidi --enable-libharfbuzz --enable-liblensfun --enable-libvidstab --enable-libvmaf --enable-libzimg --enable-amf --enable-cuda-llvm --enable-cuvid --enable-dxva2 --enable-d3d11va --enable-d3d12va --enable-ffnvcodec --enable-libvpl --enable-nvdec --enable-nvenc --enable-vaapi --enable-libshaderc --enable-vulkan --enable-libplacebo --enable-opencl --enable-libcdio --enable-openal --enable-libgme --enable-libmodplug --enable-libopenmpt --enable-libopencore-amrwb --enable-libmp3lame --enable-libshine --enable-libtheora --enable-libtwolame --enable-libvo-amrwbenc --enable-libcodec2 --enable-libilbc --enable-libgsm --enable-liblc3 --enable-libopencore-amrnb --enable-libopus --enable-libspeex --enable-libvorbis --enable-ladspa --enable-libbs2b --enable-libflite --enable-libmysofa --enable-librubberband --enable-libsoxr --enable-chromaprint --enable-whisper
  libavutil      60. 26.101 / 60. 26.101
  libavcodec     62. 28.101 / 62. 28.101
  libavformat    62. 12.101 / 62. 12.101
  libavdevice    62.  3.101 / 62.  3.101
  libavfilter    11. 14.101 / 11. 14.101
  libswscale      9.  5.101 /  9.  5.101
  libswresample   6.  3.101 /  6.  3.101
Input #0, mov,mp4,m4a,3gp,3g2,mj2, from 'D:\PythonProjects\viral-cutter-ai\benchmarks\runs\20260510_171633\putin_parade_commentary\auto\cuts_raw\segment_3_00-55_26_01-34_25.mp4':
  Metadata:
    major_brand     : isom
    minor_version   : 512
    compatible_brands: isomiso2avc1mp41
    encoder         : Lavf62.12.101
  Duration: 00:00:39.00, start: 0.000000, bitrate: 3312 kb/s
  Stream #0:0[0x1](und): Video: h264 (High) (avc1 / 0x31637661), yuvj420p(pc, bt470bg/unknown/unknown, progressive), 1080x1920 [SAR 1:1 DAR 9:16], 3121 kb/s, 25 fps, 25 tbr, 12800 tbn, start 0.080000 (default)
    Metadata:
      handler_name    : VideoHandler
      encoder         : Lavc62.28.101 libx264
  Stream #0:1[0x2](eng): Audio: aac (LC) (mp4a / 0x6134706D), 48000 Hz, stereo, fltp, 194 kb/s (default)
    Metadata:
      handler_name    : SoundHandler
[Parsed_ass_0 @ 000001f25a2ea240] libass API version: 0x1704000
[Parsed_ass_0 @ 000001f25a2ea240] libass source: commit: 0.17.4-27-g1cbba0a8818c83495114b3c2b5730410eecbdb2c
[Parsed_ass_0 @ 000001f25a2ea240] Shaper: FriBidi 1.0.16 (SIMPLE) HarfBuzz-ng 14.2.0 (COMPLEX)
[Parsed_ass_0 @ 000001f25a2ea240] Using font provider directwrite (with GDI)
[Parsed_ass_0 @ 000001f25a2ea240] Added subtitle file: 'D:\PythonProjects\viral-cutter-ai\benchmarks\runs\20260510_171633\putin_parade_commentary\auto\cuts_raw\segment_3_00-55_26_01-34_25.ass' (6 styles, 9 events)
Stream mapping:
  Stream #0:0 -> #0:0 (h264 (native) -> h264 (libx264))
  Stream #0:1 -> #0:1 (aac (native) -> aac (native))
Press [q] to stop, [?] for help
[Parsed_ass_0 @ 000001f25a2eb440] libass API version: 0x1704000
[Parsed_ass_0 @ 000001f25a2eb440] libass source: commit: 0.17.4-27-g1cbba0a8818c83495114b3c2b5730410eecbdb2c
[Parsed_ass_0 @ 000001f25a2eb440] Shaper: FriBidi 1.0.16 (SIMPLE) HarfBuzz-ng 14.2.0 (COMPLEX)
[Parsed_ass_0 @ 000001f25a2eb440] Using font provider directwrite (with GDI)
[Parsed_ass_0 @ 000001f25a2eb440] Added subtitle file: 'D:\PythonProjects\viral-cutter-ai\benchmarks\runs\20260510_171633\putin_parade_commentary\auto\cuts_raw\segment_3_00-55_26_01-34_25.ass' (6 styles, 9 events)
[Parsed_ass_0 @ 000001f25a2eb440] fontselect: (Arial Black, 400, 0) -> Arial-Black, 0, Arial-Black
[Parsed_ass_0 @ 000001f25a2eb440] fontselect: (Arial Black, 700, 0) -> Arial-Black, 0, Arial-Black
[libx264 @ 000001f258735340] using SAR=1/1
[libx264 @ 000001f258735340] using cpu capabilities: MMX2 SSE2Fast SSSE3 SSE4.2 AVX FMA3 BMI2 AVX2 AVX512
[libx264 @ 000001f258735340] profile High, level 4.0, 4:2:0, 8-bit
[libx264 @ 000001f258735340] 264 - core 165 r3223 0480cb0 - H.264/MPEG-4 AVC codec - Copyleft 2003-2025 - http://www.videolan.org/x264.html - options: cabac=1 ref=3 deblock=1:0:0 analyse=0x3:0x113 me=hex subme=7 psy=1 psy_rd=1.00:0.00 mixed_ref=1 me_range=16 chroma_me=1 trellis=1 8x8dct=1 cqm=0 deadzone=21,11 fast_pskip=1 chroma_qp_offset=-2 threads=24 lookahead_threads=4 sliced_threads=0 nr=0 decimate=1 interlaced=0 bluray_compat=0 constrained_intra=0 bframes=3 b_pyramid=2 b_adapt=1 b_bias=0 direct=1 weightb=1 open_gop=0 weightp=2 keyint=250 keyint_min=25 scenecut=40 intra_refresh=0 rc_lookahead=40 rc=crf mbtree=1 crf=23.0 qcomp=0.60 qpmin=0 qpmax=69 qpstep=4 ip_ratio=1.40 aq=1:1.00
Output #0, mp4, to 'D:\PythonProjects\viral-cutter-ai\benchmarks\runs\20260510_171633\putin_parade_commentary\auto\cuts_subtitles\segment_3_00-55_26_01-34_25.mp4':
  Metadata:
    major_brand     : isom
    minor_version   : 512
    compatible_brands: isomiso2avc1mp41
    encoder         : Lavf62.12.101
  Stream #0:0(und): Video: h264 (avc1 / 0x31637661), yuvj420p(pc, bt470bg/unknown/unknown, progressive), 1080x1920 [SAR 1:1 DAR 9:16], q=2-31, 25 fps, 12800 tbn (default)
    Metadata:
      encoder         : Lavc62.28.101 libx264
      handler_name    : VideoHandler
    Side data:
      CPB properties: bitrate max/min/avg: 0/0/0 buffer size: 0 vbv_delay: N/A
  Stream #0:1(eng): Audio: aac (LC) (mp4a / 0x6134706D), 48000 Hz, stereo, fltp, 192 kb/s (default)
    Metadata:
      encoder         : Lavc62.28.101 aac
      handler_name    : SoundHandler
frame=  149 fps=0.0 q=28.0 size=     512KiB time=00:00:05.96 bitrate= 703.8kbits/s speed=11.7x elapsed=0:00:00.51    frame=  289 fps=282 q=28.0 size=    1280KiB time=00:00:11.56 bitrate= 907.1kbits/s speed=11.3x elapsed=0:00:01.02    frame=  420 fps=272 q=28.0 size=    2816KiB time=00:00:16.80 bitrate=1373.2kbits/s speed=10.9x elapsed=0:00:01.54    frame=  536 fps=261 q=28.0 size=    4608KiB time=00:00:21.44 bitrate=1760.7kbits/s speed=10.4x elapsed=0:00:02.05    frame=  643 fps=249 q=28.0 size=    6400KiB time=00:00:25.72 bitrate=2038.5kbits/s speed=9.97x elapsed=0:00:02.57    frame=  751 fps=243 q=28.0 size=    8192KiB time=00:00:30.04 bitrate=2234.0kbits/s speed=9.71x elapsed=0:00:03.09    frame=  857 fps=237 q=28.0 size=    9728KiB time=00:00:34.28 bitrate=2324.7kbits/s speed=9.49x elapsed=0:00:03.61    [out#0/mp4 @ 000001f25869ee40] video:10451KiB audio:927KiB subtitle:0KiB other streams:0KiB global headers:0KiB muxing overhead: 0.261646%
frame=  972 fps=241 q=-1.0 Lsize=   11408KiB time=00:00:38.88 bitrate=2403.7kbits/s speed=9.62x elapsed=0:00:04.04    
[libx264 @ 000001f258735340] frame I:10    Avg QP:17.86  size: 55515
[libx264 @ 000001f258735340] frame P:393   Avg QP:20.72  size: 18848
[libx264 @ 000001f258735340] frame B:569   Avg QP:23.96  size:  4814
[libx264 @ 000001f258735340] consecutive B-frames: 10.0% 34.6%  4.0% 51.4%
[libx264 @ 000001f258735340] mb I  I16..4: 22.7% 65.7% 11.6%
[libx264 @ 000001f258735340] mb P  I16..4:  3.5% 11.4%  0.9%  P16..4: 29.3%  4.7%  2.2%  0.0%  0.0%    skip:48.0%
[libx264 @ 000001f258735340] mb B  I16..4:  0.4%  0.8%  0.1%  B16..8: 21.6%  1.0%  0.1%  direct: 1.3%  skip:74.7%  L0:40.9% L1:55.0% BI: 4.1%
[libx264 @ 000001f258735340] 8x8 transform intra:70.7% inter:84.4%
[libx264 @ 000001f258735340] coded y,uvDC,uvAC intra: 30.9% 44.8% 11.6% inter: 5.4% 10.0% 0.3%
[libx264 @ 000001f258735340] i16 v,h,dc,p: 32% 30%  6% 33%
[libx264 @ 000001f258735340] i8 v,h,dc,ddl,ddr,vr,hd,vl,hu: 27% 21% 25%  4%  5%  5%  6%  4%  4%
[libx264 @ 000001f258735340] i4 v,h,dc,ddl,ddr,vr,hd,vl,hu: 24% 27% 10%  5%  8%  7%  9%  5%  5%
[libx264 @ 000001f258735340] i8c dc,h,v,p: 55% 19% 18%  8%
[libx264 @ 000001f258735340] Weighted P-Frames: Y:0.0% UV:0.0%
[libx264 @ 000001f258735340] ref P L0: 74.4%  9.5% 12.9%  3.2%
[libx264 @ 000001f258735340] ref B L0: 91.8%  7.1%  1.1%
[libx264 @ 000001f258735340] ref B L1: 98.7%  1.3%
[libx264 @ 000001f258735340] kb/s:2201.98
[aac @ 000001f25a8d6980] Qavg: 934.831
ffmpeg version 8.1.1-full_build-www.gyan.dev Copyright (c) 2000-2026 the FFmpeg developers
  built with gcc 15.2.0 (Rev13, Built by MSYS2 project)
  configuration: --enable-gpl --enable-version3 --enable-static --disable-w32threads --disable-autodetect --enable-cairo --enable-fontconfig --enable-iconv --enable-gnutls --enable-lcms2 --enable-libxml2 --enable-gmp --enable-bzlib --enable-lzma --enable-libsnappy --enable-zlib --enable-librist --enable-libsrt --enable-libssh --enable-libzmq --enable-avisynth --enable-libbluray --enable-libcaca --enable-libdvdnav --enable-libdvdread --enable-sdl2 --enable-libaribb24 --enable-libaribcaption --enable-libdav1d --enable-libdavs2 --enable-libopenjpeg --enable-libquirc --enable-libuavs3d --enable-libxevd --enable-libzvbi --enable-liboapv --enable-libqrencode --enable-librav1e --enable-libsvtav1 --enable-libvvenc --enable-libwebp --enable-libx264 --enable-libx265 --enable-libxavs2 --enable-libxeve --enable-libxvid --enable-libaom --enable-libjxl --enable-libsvtjpegxs --enable-libvpx --enable-mediafoundation --enable-libass --enable-frei0r --enable-libfreetype --enable-libfribidi --enable-libharfbuzz --enable-liblensfun --enable-libvidstab --enable-libvmaf --enable-libzimg --enable-amf --enable-cuda-llvm --enable-cuvid --enable-dxva2 --enable-d3d11va --enable-d3d12va --enable-ffnvcodec --enable-libvpl --enable-nvdec --enable-nvenc --enable-vaapi --enable-libshaderc --enable-vulkan --enable-libplacebo --enable-opencl --enable-libcdio --enable-openal --enable-libgme --enable-libmodplug --enable-libopenmpt --enable-libopencore-amrwb --enable-libmp3lame --enable-libshine --enable-libtheora --enable-libtwolame --enable-libvo-amrwbenc --enable-libcodec2 --enable-libilbc --enable-libgsm --enable-liblc3 --enable-libopencore-amrnb --enable-libopus --enable-libspeex --enable-libvorbis --enable-ladspa --enable-libbs2b --enable-libflite --enable-libmysofa --enable-librubberband --enable-libsoxr --enable-chromaprint --enable-whisper
  libavutil      60. 26.101 / 60. 26.101
  libavcodec     62. 28.101 / 62. 28.101
  libavformat    62. 12.101 / 62. 12.101
  libavdevice    62.  3.101 / 62.  3.101
  libavfilter    11. 14.101 / 11. 14.101
  libswscale      9.  5.101 /  9.  5.101
  libswresample   6.  3.101 /  6.  3.101
Input #0, mov,mp4,m4a,3gp,3g2,mj2, from 'D:\PythonProjects\viral-cutter-ai\benchmarks\runs\20260510_171633\putin_parade_commentary\auto\cuts_raw\segment_4_12-31_65_13-06_09.mp4':
  Metadata:
    major_brand     : isom
    minor_version   : 512
    compatible_brands: isomiso2avc1mp41
    encoder         : Lavf62.12.101
  Duration: 00:00:34.45, start: 0.000000, bitrate: 3673 kb/s
  Stream #0:0[0x1](und): Video: h264 (High) (avc1 / 0x31637661), yuvj420p(pc, bt470bg/unknown/unknown, progressive), 1080x1920 [SAR 1:1 DAR 9:16], 3482 kb/s, 25 fps, 25 tbr, 12800 tbn, start 0.080000 (default)
    Metadata:
      handler_name    : VideoHandler
      encoder         : Lavc62.28.101 libx264
  Stream #0:1[0x2](eng): Audio: aac (LC) (mp4a / 0x6134706D), 48000 Hz, stereo, fltp, 193 kb/s (default)
    Metadata:
      handler_name    : SoundHandler
[Parsed_ass_0 @ 00000142b2816dc0] libass API version: 0x1704000
[Parsed_ass_0 @ 00000142b2816dc0] libass source: commit: 0.17.4-27-g1cbba0a8818c83495114b3c2b5730410eecbdb2c
[Parsed_ass_0 @ 00000142b2816dc0] Shaper: FriBidi 1.0.16 (SIMPLE) HarfBuzz-ng 14.2.0 (COMPLEX)
[Parsed_ass_0 @ 00000142b2816dc0] Using font provider directwrite (with GDI)
[Parsed_ass_0 @ 00000142b2816dc0] Added subtitle file: 'D:\PythonProjects\viral-cutter-ai\benchmarks\runs\20260510_171633\putin_parade_commentary\auto\cuts_raw\segment_4_12-31_65_13-06_09.ass' (7 styles, 13 events)
Stream mapping:
  Stream #0:0 -> #0:0 (h264 (native) -> h264 (libx264))
  Stream #0:1 -> #0:1 (aac (native) -> aac (native))
Press [q] to stop, [?] for help
[Parsed_ass_0 @ 00000142b2817880] libass API version: 0x1704000
[Parsed_ass_0 @ 00000142b2817880] libass source: commit: 0.17.4-27-g1cbba0a8818c83495114b3c2b5730410eecbdb2c
[Parsed_ass_0 @ 00000142b2817880] Shaper: FriBidi 1.0.16 (SIMPLE) HarfBuzz-ng 14.2.0 (COMPLEX)
[Parsed_ass_0 @ 00000142b2817880] Using font provider directwrite (with GDI)
[Parsed_ass_0 @ 00000142b2817880] Added subtitle file: 'D:\PythonProjects\viral-cutter-ai\benchmarks\runs\20260510_171633\putin_parade_commentary\auto\cuts_raw\segment_4_12-31_65_13-06_09.ass' (7 styles, 13 events)
[Parsed_ass_0 @ 00000142b2817880] fontselect: (Arial Black, 400, 0) -> Arial-Black, 0, Arial-Black
[Parsed_ass_0 @ 00000142b2817880] fontselect: (Arial Black, 700, 0) -> Arial-Black, 0, Arial-Black
[libx264 @ 00000142b46d6640] using SAR=1/1
[libx264 @ 00000142b46d6640] using cpu capabilities: MMX2 SSE2Fast SSSE3 SSE4.2 AVX FMA3 BMI2 AVX2 AVX512
[libx264 @ 00000142b46d6640] profile High, level 4.0, 4:2:0, 8-bit
[libx264 @ 00000142b46d6640] 264 - core 165 r3223 0480cb0 - H.264/MPEG-4 AVC codec - Copyleft 2003-2025 - http://www.videolan.org/x264.html - options: cabac=1 ref=3 deblock=1:0:0 analyse=0x3:0x113 me=hex subme=7 psy=1 psy_rd=1.00:0.00 mixed_ref=1 me_range=16 chroma_me=1 trellis=1 8x8dct=1 cqm=0 deadzone=21,11 fast_pskip=1 chroma_qp_offset=-2 threads=24 lookahead_threads=4 sliced_threads=0 nr=0 decimate=1 interlaced=0 bluray_compat=0 constrained_intra=0 bframes=3 b_pyramid=2 b_adapt=1 b_bias=0 direct=1 weightb=1 open_gop=0 weightp=2 keyint=250 keyint_min=25 scenecut=40 intra_refresh=0 rc_lookahead=40 rc=crf mbtree=1 crf=23.0 qcomp=0.60 qpmin=0 qpmax=69 qpstep=4 ip_ratio=1.40 aq=1:1.00
Output #0, mp4, to 'D:\PythonProjects\viral-cutter-ai\benchmarks\runs\20260510_171633\putin_parade_commentary\auto\cuts_subtitles\segment_4_12-31_65_13-06_09.mp4':
  Metadata:
    major_brand     : isom
    minor_version   : 512
    compatible_brands: isomiso2avc1mp41
    encoder         : Lavf62.12.101
  Stream #0:0(und): Video: h264 (avc1 / 0x31637661), yuvj420p(pc, bt470bg/unknown/unknown, progressive), 1080x1920 [SAR 1:1 DAR 9:16], q=2-31, 25 fps, 12800 tbn (default)
    Metadata:
      encoder         : Lavc62.28.101 libx264
      handler_name    : VideoHandler
    Side data:
      CPB properties: bitrate max/min/avg: 0/0/0 buffer size: 0 vbv_delay: N/A
  Stream #0:1(eng): Audio: aac (LC) (mp4a / 0x6134706D), 48000 Hz, stereo, fltp, 192 kb/s (default)
    Metadata:
      encoder         : Lavc62.28.101 aac
      handler_name    : SoundHandler
frame=   58 fps=0.0 q=28.0 size=     768KiB time=00:00:02.32 bitrate=2712.0kbits/s speed=4.53x elapsed=0:00:00.51    frame=  174 fps=169 q=28.0 size=    2304KiB time=00:00:06.96 bitrate=2711.9kbits/s speed=6.75x elapsed=0:00:01.03    frame=  302 fps=196 q=28.0 size=    3840KiB time=00:00:12.08 bitrate=2604.1kbits/s speed=7.85x elapsed=0:00:01.53    frame=  429 fps=208 q=28.0 size=    5120KiB time=00:00:17.16 bitrate=2444.3kbits/s speed=8.33x elapsed=0:00:02.05    frame=  539 fps=210 q=28.0 size=    6912KiB time=00:00:21.56 bitrate=2626.3kbits/s speed=8.39x elapsed=0:00:02.57    frame=  652 fps=211 q=28.0 size=    8704KiB time=00:00:26.08 bitrate=2734.0kbits/s speed=8.44x elapsed=0:00:03.08    frame=  812 fps=225 q=28.0 size=   10496KiB time=N/A bitrate=N/A speed=N/A elapsed=0:00:03.61    [out#0/mp4 @ 00000142b277eb80] video:10704KiB audio:815KiB subtitle:0KiB other streams:0KiB global headers:0KiB muxing overhead: 0.233428%
frame=  859 fps=227 q=-1.0 Lsize=   11546KiB time=00:00:34.36 bitrate=2752.7kbits/s speed=9.08x elapsed=0:00:03.78    
[libx264 @ 00000142b46d6640] frame I:5     Avg QP:19.73  size: 64975
[libx264 @ 00000142b46d6640] frame P:334   Avg QP:20.85  size: 24091
[libx264 @ 00000142b46d6640] frame B:520   Avg QP:24.92  size:  4979
[libx264 @ 00000142b46d6640] consecutive B-frames:  3.1% 48.4%  0.0% 48.4%
[libx264 @ 00000142b46d6640] mb I  I16..4: 13.9% 73.5% 12.6%
[libx264 @ 00000142b46d6640] mb P  I16..4:  2.9% 11.2%  0.9%  P16..4: 37.3%  6.3%  2.7%  0.0%  0.0%    skip:38.6%
[libx264 @ 00000142b46d6640] mb B  I16..4:  0.3%  0.6%  0.0%  B16..8: 24.3%  0.9%  0.1%  direct: 1.4%  skip:72.4%  L0:40.7% L1:54.1% BI: 5.2%
[libx264 @ 00000142b46d6640] 8x8 transform intra:74.0% inter:80.1%
[libx264 @ 00000142b46d6640] coded y,uvDC,uvAC intra: 38.2% 43.1% 13.5% inter: 6.5% 11.9% 0.3%
[libx264 @ 00000142b46d6640] i16 v,h,dc,p: 27% 35%  6% 32%
[libx264 @ 00000142b46d6640] i8 v,h,dc,ddl,ddr,vr,hd,vl,hu: 23% 19% 24%  4%  6%  7%  6%  5%  5%
[libx264 @ 00000142b46d6640] i4 v,h,dc,ddl,ddr,vr,hd,vl,hu: 31% 19% 10%  5%  9%  9%  8%  6%  4%
[libx264 @ 00000142b46d6640] i8c dc,h,v,p: 61% 16% 16%  7%
[libx264 @ 00000142b46d6640] Weighted P-Frames: Y:1.8% UV:0.3%
[libx264 @ 00000142b46d6640] ref P L0: 68.4%  8.4% 18.6%  4.6%  0.0%
[libx264 @ 00000142b46d6640] ref B L0: 86.4% 12.0%  1.6%
[libx264 @ 00000142b46d6640] ref B L1: 98.4%  1.6%
[libx264 @ 00000142b46d6640] kb/s:2551.92
[aac @ 00000142b463c180] Qavg: 895.053
ffmpeg version 8.1.1-full_build-www.gyan.dev Copyright (c) 2000-2026 the FFmpeg developers
  built with gcc 15.2.0 (Rev13, Built by MSYS2 project)
  configuration: --enable-gpl --enable-version3 --enable-static --disable-w32threads --disable-autodetect --enable-cairo --enable-fontconfig --enable-iconv --enable-gnutls --enable-lcms2 --enable-libxml2 --enable-gmp --enable-bzlib --enable-lzma --enable-libsnappy --enable-zlib --enable-librist --enable-libsrt --enable-libssh --enable-libzmq --enable-avisynth --enable-libbluray --enable-libcaca --enable-libdvdnav --enable-libdvdread --enable-sdl2 --enable-libaribb24 --enable-libaribcaption --enable-libdav1d --enable-libdavs2 --enable-libopenjpeg --enable-libquirc --enable-libuavs3d --enable-libxevd --enable-libzvbi --enable-liboapv --enable-libqrencode --enable-librav1e --enable-libsvtav1 --enable-libvvenc --enable-libwebp --enable-libx264 --enable-libx265 --enable-libxavs2 --enable-libxeve --enable-libxvid --enable-libaom --enable-libjxl --enable-libsvtjpegxs --enable-libvpx --enable-mediafoundation --enable-libass --enable-frei0r --enable-libfreetype --enable-libfribidi --enable-libharfbuzz --enable-liblensfun --enable-libvidstab --enable-libvmaf --enable-libzimg --enable-amf --enable-cuda-llvm --enable-cuvid --enable-dxva2 --enable-d3d11va --enable-d3d12va --enable-ffnvcodec --enable-libvpl --enable-nvdec --enable-nvenc --enable-vaapi --enable-libshaderc --enable-vulkan --enable-libplacebo --enable-opencl --enable-libcdio --enable-openal --enable-libgme --enable-libmodplug --enable-libopenmpt --enable-libopencore-amrwb --enable-libmp3lame --enable-libshine --enable-libtheora --enable-libtwolame --enable-libvo-amrwbenc --enable-libcodec2 --enable-libilbc --enable-libgsm --enable-liblc3 --enable-libopencore-amrnb --enable-libopus --enable-libspeex --enable-libvorbis --enable-ladspa --enable-libbs2b --enable-libflite --enable-libmysofa --enable-librubberband --enable-libsoxr --enable-chromaprint --enable-whisper
  libavutil      60. 26.101 / 60. 26.101
  libavcodec     62. 28.101 / 62. 28.101
  libavformat    62. 12.101 / 62. 12.101
  libavdevice    62.  3.101 / 62.  3.101
  libavfilter    11. 14.101 / 11. 14.101
  libswscale      9.  5.101 /  9.  5.101
  libswresample   6.  3.101 /  6.  3.101
Input #0, mov,mp4,m4a,3gp,3g2,mj2, from 'D:\PythonProjects\viral-cutter-ai\benchmarks\runs\20260510_171633\putin_parade_commentary\auto\cuts_raw\segment_5_14-34_63_15-19_99.mp4':
  Metadata:
    major_brand     : isom
    minor_version   : 512
    compatible_brands: isomiso2avc1mp41
    encoder         : Lavf62.12.101
  Duration: 00:00:45.38, start: 0.000000, bitrate: 4184 kb/s
  Stream #0:0[0x1](und): Video: h264 (High) (avc1 / 0x31637661), yuvj420p(pc, bt470bg/unknown/unknown, progressive), 1080x1920 [SAR 1:1 DAR 9:16], 3993 kb/s, 25 fps, 25 tbr, 12800 tbn, start 0.080000 (default)
    Metadata:
      handler_name    : VideoHandler
      encoder         : Lavc62.28.101 libx264
  Stream #0:1[0x2](eng): Audio: aac (LC) (mp4a / 0x6134706D), 48000 Hz, stereo, fltp, 193 kb/s (default)
    Metadata:
      handler_name    : SoundHandler
[Parsed_ass_0 @ 000001fec5e4f480] libass API version: 0x1704000
[Parsed_ass_0 @ 000001fec5e4f480] libass source: commit: 0.17.4-27-g1cbba0a8818c83495114b3c2b5730410eecbdb2c
[Parsed_ass_0 @ 000001fec5e4f480] Shaper: FriBidi 1.0.16 (SIMPLE) HarfBuzz-ng 14.2.0 (COMPLEX)
[Parsed_ass_0 @ 000001fec5e4f480] Using font provider directwrite (with GDI)
[Parsed_ass_0 @ 000001fec5e4f480] Added subtitle file: 'D:\PythonProjects\viral-cutter-ai\benchmarks\runs\20260510_171633\putin_parade_commentary\auto\cuts_raw\segment_5_14-34_63_15-19_99.ass' (7 styles, 10 events)
Stream mapping:
  Stream #0:0 -> #0:0 (h264 (native) -> h264 (libx264))
  Stream #0:1 -> #0:1 (aac (native) -> aac (native))
Press [q] to stop, [?] for help
[Parsed_ass_0 @ 000001fec5e4ed00] libass API version: 0x1704000
[Parsed_ass_0 @ 000001fec5e4ed00] libass source: commit: 0.17.4-27-g1cbba0a8818c83495114b3c2b5730410eecbdb2c
[Parsed_ass_0 @ 000001fec5e4ed00] Shaper: FriBidi 1.0.16 (SIMPLE) HarfBuzz-ng 14.2.0 (COMPLEX)
[Parsed_ass_0 @ 000001fec5e4ed00] Using font provider directwrite (with GDI)
[Parsed_ass_0 @ 000001fec5e4ed00] Added subtitle file: 'D:\PythonProjects\viral-cutter-ai\benchmarks\runs\20260510_171633\putin_parade_commentary\auto\cuts_raw\segment_5_14-34_63_15-19_99.ass' (7 styles, 10 events)
[Parsed_ass_0 @ 000001fec5e4ed00] fontselect: (Arial Black, 400, 0) -> Arial-Black, 0, Arial-Black
[Parsed_ass_0 @ 000001fec5e4ed00] fontselect: (Arial Black, 700, 0) -> Arial-Black, 0, Arial-Black
[libx264 @ 000001fec7c4ab00] using SAR=1/1
[libx264 @ 000001fec7c4ab00] using cpu capabilities: MMX2 SSE2Fast SSSE3 SSE4.2 AVX FMA3 BMI2 AVX2 AVX512
[libx264 @ 000001fec7c4ab00] profile High, level 4.0, 4:2:0, 8-bit
[libx264 @ 000001fec7c4ab00] 264 - core 165 r3223 0480cb0 - H.264/MPEG-4 AVC codec - Copyleft 2003-2025 - http://www.videolan.org/x264.html - options: cabac=1 ref=3 deblock=1:0:0 analyse=0x3:0x113 me=hex subme=7 psy=1 psy_rd=1.00:0.00 mixed_ref=1 me_range=16 chroma_me=1 trellis=1 8x8dct=1 cqm=0 deadzone=21,11 fast_pskip=1 chroma_qp_offset=-2 threads=24 lookahead_threads=4 sliced_threads=0 nr=0 decimate=1 interlaced=0 bluray_compat=0 constrained_intra=0 bframes=3 b_pyramid=2 b_adapt=1 b_bias=0 direct=1 weightb=1 open_gop=0 weightp=2 keyint=250 keyint_min=25 scenecut=40 intra_refresh=0 rc_lookahead=40 rc=crf mbtree=1 crf=23.0 qcomp=0.60 qpmin=0 qpmax=69 qpstep=4 ip_ratio=1.40 aq=1:1.00
Output #0, mp4, to 'D:\PythonProjects\viral-cutter-ai\benchmarks\runs\20260510_171633\putin_parade_commentary\auto\cuts_subtitles\segment_5_14-34_63_15-19_99.mp4':
  Metadata:
    major_brand     : isom
    minor_version   : 512
    compatible_brands: isomiso2avc1mp41
    encoder         : Lavf62.12.101
  Stream #0:0(und): Video: h264 (avc1 / 0x31637661), yuvj420p(pc, bt470bg/unknown/unknown, progressive), 1080x1920 [SAR 1:1 DAR 9:16], q=2-31, 25 fps, 12800 tbn (default)
    Metadata:
      encoder         : Lavc62.28.101 libx264
      handler_name    : VideoHandler
    Side data:
      CPB properties: bitrate max/min/avg: 0/0/0 buffer size: 0 vbv_delay: N/A
  Stream #0:1(eng): Audio: aac (LC) (mp4a / 0x6134706D), 48000 Hz, stereo, fltp, 192 kb/s (default)
    Metadata:
      encoder         : Lavc62.28.101 aac
      handler_name    : SoundHandler
frame=   72 fps=0.0 q=28.0 size=     768KiB time=00:00:02.88 bitrate=2184.7kbits/s speed=5.66x elapsed=0:00:00.50    frame=  181 fps=177 q=28.0 size=    2304KiB time=00:00:07.24 bitrate=2607.0kbits/s speed=7.08x elapsed=0:00:01.02    frame=  266 fps=173 q=28.0 size=    3840KiB time=00:00:10.64 bitrate=2956.5kbits/s speed=6.93x elapsed=0:00:01.53    frame=  345 fps=167 q=28.0 size=    5632KiB time=00:00:13.80 bitrate=3343.3kbits/s speed=6.69x elapsed=0:00:02.06    frame=  428 fps=166 q=28.0 size=    7680KiB time=00:00:17.12 bitrate=3674.9kbits/s speed=6.64x elapsed=0:00:02.57    frame=  540 fps=175 q=28.0 size=    9216KiB time=00:00:21.60 bitrate=3495.3kbits/s speed=6.99x elapsed=0:00:03.09    frame=  635 fps=176 q=28.0 size=   10496KiB time=00:00:25.40 bitrate=3385.2kbits/s speed=7.04x elapsed=0:00:03.60    frame=  738 fps=179 q=28.0 size=   11776KiB time=00:00:29.52 bitrate=3267.9kbits/s speed=7.16x elapsed=0:00:04.12    frame=  840 fps=182 q=28.0 size=   13056KiB time=00:00:33.60 bitrate=3183.2kbits/s speed=7.26x elapsed=0:00:04.62    frame=  952 fps=185 q=28.0 size=   14848KiB time=00:00:38.08 bitrate=3194.2kbits/s speed=7.38x elapsed=0:00:05.15    frame= 1085 fps=191 q=28.0 size=   16384KiB time=N/A bitrate=N/A speed=N/A elapsed=0:00:05.67    [out#0/mp4 @ 000001fec5dd0d00] video:15911KiB audio:1076KiB subtitle:0KiB other streams:0KiB global headers:0KiB muxing overhead: 0.201605%
frame= 1132 fps=196 q=-1.0 Lsize=   17022KiB time=00:00:45.28 bitrate=3079.6kbits/s speed=7.85x elapsed=0:00:05.77    
[libx264 @ 000001fec7c4ab00] frame I:6     Avg QP:19.70  size: 69618
[libx264 @ 000001fec7c4ab00] frame P:542   Avg QP:21.51  size: 22141
[libx264 @ 000001fec7c4ab00] frame B:584   Avg QP:23.59  size:  6634
[libx264 @ 000001fec7c4ab00] consecutive B-frames: 11.8% 56.7%  4.2% 27.2%
[libx264 @ 000001fec7c4ab00] mb I  I16..4: 15.5% 71.2% 13.3%
[libx264 @ 000001fec7c4ab00] mb P  I16..4:  7.7% 22.4%  1.1%  P16..4: 33.5%  4.7%  1.7%  0.0%  0.0%    skip:28.8%
[libx264 @ 000001fec7c4ab00] mb B  I16..4:  1.2%  2.2%  0.1%  B16..8: 28.4%  1.2%  0.1%  direct: 1.7%  skip:65.1%  L0:41.2% L1:55.2% BI: 3.6%
[libx264 @ 000001fec7c4ab00] 8x8 transform intra:70.9% inter:87.3%
[libx264 @ 000001fec7c4ab00] coded y,uvDC,uvAC intra: 24.8% 36.0% 7.5% inter: 6.8% 13.0% 0.3%
[libx264 @ 000001fec7c4ab00] i16 v,h,dc,p: 27% 34%  7% 33%
[libx264 @ 000001fec7c4ab00] i8 v,h,dc,ddl,ddr,vr,hd,vl,hu: 30% 23% 23%  4%  5%  5%  5%  4%  3%
[libx264 @ 000001fec7c4ab00] i4 v,h,dc,ddl,ddr,vr,hd,vl,hu: 28% 27% 12%  4%  6%  7%  7%  5%  4%
[libx264 @ 000001fec7c4ab00] i8c dc,h,v,p: 59% 19% 17%  6%
[libx264 @ 000001fec7c4ab00] Weighted P-Frames: Y:1.8% UV:0.9%
[libx264 @ 000001fec7c4ab00] ref P L0: 75.6%  8.2% 13.2%  3.0%  0.0%
[libx264 @ 000001fec7c4ab00] ref B L0: 92.4%  6.8%  0.7%
[libx264 @ 000001fec7c4ab00] ref B L1: 99.1%  0.9%
[libx264 @ 000001fec7c4ab00] kb/s:2878.55
[aac @ 000001fec7e13a80] Qavg: 833.415
Loading transcript: D:\PythonProjects\viral-cutter-ai\benchmarks\runs\20260510_171633\putin_parade_commentary\shared\transcript.json
Found 5 cut videos

Processing: segment_1_06-57_53_07-47_13.mp4
Raw video already present: segment_1_06-57_53_07-47_13.mp4
  Adding subtitles: segment_1_06-57_53_07-47_13.mp4
Added subtitles: segment_1_06-57_53_07-47_13.mp4

Processing: segment_2_10-08_63_10-39_61.mp4
Raw video already present: segment_2_10-08_63_10-39_61.mp4
  Adding subtitles: segment_2_10-08_63_10-39_61.mp4
Added subtitles: segment_2_10-08_63_10-39_61.mp4

Processing: segment_3_00-55_26_01-34_25.mp4
Raw video already present: segment_3_00-55_26_01-34_25.mp4
  Adding subtitles: segment_3_00-55_26_01-34_25.mp4
Added subtitles: segment_3_00-55_26_01-34_25.mp4

Processing: segment_4_12-31_65_13-06_09.mp4
Raw video already present: segment_4_12-31_65_13-06_09.mp4
  Adding subtitles: segment_4_12-31_65_13-06_09.mp4
Added subtitles: segment_4_12-31_65_13-06_09.mp4

Processing: segment_5_14-34_63_15-19_99.mp4
Raw video already present: segment_5_14-34_63_15-19_99.mp4
  Adding subtitles: segment_5_14-34_63_15-19_99.mp4
Added subtitles: segment_5_14-34_63_15-19_99.mp4

Done!
  Raw videos: D:\PythonProjects\viral-cutter-ai\benchmarks\runs\20260510_171633\putin_parade_commentary\auto\cuts_raw
  Subtitled videos: D:\PythonProjects\viral-cutter-ai\benchmarks\runs\20260510_171633\putin_parade_commentary\auto\cuts_subtitles
$ D:\PythonProjects\viral-cutter-ai\.venv\Scripts\python.exe D:\PythonProjects\viral-cutter-ai\subtitler.py --transcript D:\PythonProjects\viral-cutter-ai\benchmarks\runs\20260510_171633\putin_parade_commentary\shared\transcript.json --input-dir D:\PythonProjects\viral-cutter-ai\benchmarks\runs\20260510_171633\putin_parade_commentary\auto\cuts_raw --output-raw D:\PythonProjects\viral-cutter-ai\benchmarks\runs\20260510_171633\putin_parade_commentary\auto\cuts_raw --output-subs D:\PythonProjects\viral-cutter-ai\benchmarks\runs\20260510_171633\putin_parade_commentary\auto\cuts_subtitles

